<?xml version="1.0" encoding="UTF-8"?>
<!DOCTYPE svg PUBLIC "-//W3C//DTD SVG 1.1//EN" "http://www.w3.org/Graphics/SVG/1.1/DTD/svg11.dtd">
<svg xmlns="http://www.w3.org/2000/svg" version="1.1" width="430px" height="104px" style="shape-rendering:geometricPrecision; text-rendering:geometricPrecision; image-rendering:optimizeQuality; fill-rule:evenodd; clip-rule:evenodd" xmlns:xlink="http://www.w3.org/1999/xlink">
<g><path style="opacity:0.95" fill="#fd5847" d="M 45.5,0.5 C 48.595,0.626299 50.4283,2.29297 51,5.5C 64.0596,34.6196 77.3929,63.6196 91,92.5C 92.4301,95.3527 93.2634,98.3527 93.5,101.5C 88.1254,101.828 82.7921,101.495 77.5,100.5C 74.2952,93.2579 70.9618,86.0912 67.5,79C 53.8212,78.1673 40.1545,78.3339 26.5,79.5C 23.4395,86.6214 20.1062,93.6214 16.5,100.5C 11.2079,101.495 5.8746,101.828 0.5,101.5C 1.41051,97.0017 2.91051,92.6683 5,88.5C 18.7879,59.2601 32.2879,29.9268 45.5,0.5 Z M 46.5,32.5 C 51.3239,42.9851 56.3239,53.4851 61.5,64C 52.1726,64.4998 42.8393,64.6665 33.5,64.5C 37.8333,53.8333 42.1667,43.1667 46.5,32.5 Z"/></g>
<g><path style="opacity:0.967" fill="#fd5947" d="M 141.5,103.5 C 136.833,103.5 132.167,103.5 127.5,103.5C 123.347,101.833 119.514,99.5001 116,96.5C 115.506,98.1341 115.34,99.8008 115.5,101.5C 110.57,101.803 105.737,101.469 101,100.5C 100.333,67.5 100.333,34.5 101,1.5C 105.748,0.365127 110.581,0.19846 115.5,1C 116.325,16.0923 116.825,31.259 117,46.5C 120.016,42.9083 123.849,40.7416 128.5,40C 150.288,38.9434 161.954,49.4434 163.5,71.5C 163.03,87.1663 155.697,97.833 141.5,103.5 Z M 128.5,52.5 C 143.088,53.258 149.588,60.9246 148,75.5C 144.821,88.1714 136.988,92.6714 124.5,89C 116.889,83.4412 114.056,75.9412 116,66.5C 117.954,59.72 122.12,55.0533 128.5,52.5 Z"/></g>
<g><path style="opacity:0.982" fill="#fd5848" d="M 171.5,0.5 C 176.167,0.5 180.833,0.5 185.5,0.5C 185.5,34.1667 185.5,67.8333 185.5,101.5C 180.833,101.5 176.167,101.5 171.5,101.5C 171.5,67.8333 171.5,34.1667 171.5,0.5 Z"/></g>
<g><path style="opacity:0.936" fill="#fd5848" d="M 296.5,103.5 C 291.5,103.5 286.5,103.5 281.5,103.5C 274.817,100.849 270.984,95.8494 270,88.5C 269.5,77.1716 269.333,65.8382 269.5,54.5C 265.5,54.5 261.5,54.5 257.5,54.5C 257.5,50.1667 257.5,45.8333 257.5,41.5C 261.422,41.931 264.922,40.931 268,38.5C 269.309,33.9342 269.809,29.2675 269.5,24.5C 274.43,24.1975 279.263,24.5308 284,25.5C 284.499,30.8229 284.666,36.1563 284.5,41.5C 289.5,41.5 294.5,41.5 299.5,41.5C 299.5,45.8333 299.5,50.1667 299.5,54.5C 294.5,54.5 289.5,54.5 284.5,54.5C 284.334,64.8387 284.5,75.172 285,85.5C 285.465,86.9308 286.299,88.0975 287.5,89C 291.51,89.3568 295.51,89.1901 299.5,88.5C 299.666,92.8461 299.499,97.1794 299,101.5C 298.005,102.066 297.172,102.733 296.5,103.5 Z"/></g>
<g><path style="opacity:0.948" fill="#fd5848" d="M 232.5,103.5 C 227.167,103.5 221.833,103.5 216.5,103.5C 197.979,95.1167 191.146,80.7834 196,60.5C 201.789,43.5143 213.622,36.681 231.5,40C 244.439,43.9976 251.606,52.831 253,66.5C 253.498,69.8168 253.665,73.1501 253.5,76.5C 238.833,76.5 224.167,76.5 209.5,76.5C 212.896,89.5887 220.896,93.4221 233.5,88C 236.125,85.2278 238.625,82.3944 241,79.5C 244.971,80.9847 248.638,82.9847 252,85.5C 252.418,87.788 251.751,89.788 250,91.5C 247.5,94 245,96.5 242.5,99C 239.107,100.62 235.774,102.12 232.5,103.5 Z M 221.5,52.5 C 230.209,52.1721 235.542,56.1721 237.5,64.5C 228.494,64.6664 219.494,64.4998 210.5,64C 213.049,58.9536 216.716,55.1202 221.5,52.5 Z"/></g>
<g><path style="opacity:0.947" fill="#fd5847" d="M 344.5,103.5 C 339.167,103.5 333.833,103.5 328.5,103.5C 309.68,96.8867 301.847,83.5533 305,63.5C 309.824,48.1887 320.324,40.1887 336.5,39.5C 354.846,40.0926 365.68,49.4259 369,67.5C 369.994,85.8706 361.828,97.8706 344.5,103.5 Z M 332.5,53.5 C 347.646,53.1456 354.813,60.4789 354,75.5C 348.45,89.463 338.95,92.963 325.5,86C 316.102,75.414 316.769,65.414 327.5,56C 329.315,55.2432 330.981,54.4098 332.5,53.5 Z"/></g>
<g><path style="opacity:0.934" fill="#fd5847" d="M 429.5,58.5 C 429.5,72.8333 429.5,87.1667 429.5,101.5C 424.5,101.5 419.5,101.5 414.5,101.5C 414.667,87.8293 414.5,74.1626 414,60.5C 412.85,55.2427 409.517,52.5761 404,52.5C 398.507,52.7391 394.84,55.4058 393,60.5C 391.573,74.1069 391.073,87.7736 391.5,101.5C 386.5,101.5 381.5,101.5 376.5,101.5C 376.5,81.5 376.5,61.5 376.5,41.5C 381.5,41.5 386.5,41.5 391.5,41.5C 391.351,42.552 391.517,43.552 392,44.5C 399.892,39.3766 408.392,38.2099 417.5,41C 424.617,44.7441 428.617,50.5775 429.5,58.5 Z"/></g>
</svg>
